<?xml version="1.0" encoding="UTF-8" standalone="no"?>
<!DOCTYPE svg PUBLIC "-//W3C//DTD SVG 20010904//EN" "http://www.w3.org/TR/2001/REC-SVG-20010904/DTD/svg10.dtd">
<svg version="1.0" xmlns="http://www.w3.org/2000/svg" width="512.000000pt" height="512.000000pt" viewBox="0 0 512.000000 512.000000" preserveAspectRatio="xMidYMid meet">
<metadata>
Created by potrace 1.14, written by Peter Selinger 2001-2017
</metadata>
<g transform="translate(0.000000,512.000000) scale(0.100000,-0.100000)" fill="#000000" stroke="none">
<path d="M1716 3814 c-144 -35 -280 -134 -333 -242 l-28 -57 0 -1005 0 -1005 24 -49 c30 -59 77 -108 134 -138 34 -18 63 -23 155 -26 l112 -4 0 986 0 986 683 0 c665 0 683 -1 727 -21 56 -25 86 -53 113 -104 22 -40 22 -44 25 -810 2 -541 0 -785 -8 -822 -19 -89 -90 -164 -187 -199 l-38 -13 66 -1 c100 0 161 22 224 83 90 88 86 36 83 993 -3 817 -3 830 -24 874 -27 59 -76 107 -139 136 l-50 24 -725 1 c-399 0 -760 4 -803 8 -94 8 -116 27 -117 102 0 89 70 148 200 169 40 6 351 10 811 10 636 0 753 -2 796 -15 68 -20 143 -88 174 -157 l24 -53 5 -858 5 -858 42 42 c23 23 53 62 65 88 l23 46 3 770 c2 548 0 787 -8 830 -24 121 -96 217 -206 271 l-59 29 -855 2 c-713 1 -865 -1 -914 -13z"/>
</g>
<script xmlns=""/><script xmlns=""/></svg>